<svg width="114" height="114" viewBox="0 0 114 114" fill="none" xmlns="http://www.w3.org/2000/svg">
<path d="M0 47.5061C0 21.2692 21.2692 0 47.5061 0H66.4939C92.7308 0 114 21.2692 114 47.5061V66.4939C114 92.7308 92.7308 114 66.4939 114H47.5061C21.2692 114 0 92.7308 0 66.4939V47.5061Z" fill="#456DA9"/>
<path d="M77.3014 50.4199C77.6847 49.1631 79.0907 48.8889 79.8708 49.9439C81.1702 51.7011 82.8491 54.0911 83.6523 55.6237C85.0154 58.2245 86.6739 60.5353 87.0697 63.2867C87.529 65.31 87.7851 67.2428 87.5471 69.1078C87.3712 70.4856 87.0708 71.8755 86.4957 73.1387C85.7611 74.7523 84.4849 76.1587 83.3616 77.2502C81.795 78.7723 79.5332 79.4411 77.3532 79.8225C75.1732 80.2038 72.8123 79.9691 70.4428 79.1355C68.0733 78.3018 65.7549 76.8903 63.6566 75.0039C62.1103 73.7776 59.8074 71.138 58.1052 68.7445C57.1903 67.458 57.854 65.7389 59.3475 65.2419C60.505 64.8567 61.7741 65.3542 62.4793 66.3541C63.7158 68.1073 65.3944 70.0997 66.5497 71.1384C68.1295 72.5587 69.6241 73.7085 71.4082 74.3361C73.1922 74.9637 74.3877 75.5526 76.029 75.2655C76.5413 75.209 77.0773 75.1093 77.6137 74.9702C79.8505 74.3906 81.6446 72.6495 82.257 70.4106C82.4083 69.8576 82.5294 69.2717 82.6211 68.6517C82.7588 67.7199 82.6251 66.7029 82.3471 65.7107C81.7445 63.5601 80.8597 61.4301 79.663 59.5473C78.8469 58.2633 77.872 56.9776 77.3101 55.9055C76.5151 54.3886 77.6856 53.4446 77.5307 52.4157C77.4297 51.7447 77.1035 51.0687 77.3014 50.4199Z" fill="#F4F1E4"/>
<path d="M14.4652 60.2711C13.4563 60.1196 12.7243 59.1736 13.1001 58.2203C14.8132 53.8751 20.6614 51.5352 25.3079 49.318C30.5518 46.8158 36.0336 46.2378 41.5291 47.4125C47.0245 48.5871 51.9143 51.7133 55.3192 56.229C57.8987 59.9702 61.656 65.1636 64.0685 68.6448C64.7924 69.6893 64.559 71.1121 63.5553 71.8883C62.615 72.6153 61.3014 72.5348 60.5089 71.6475C57.7884 68.6018 52.8495 62.5732 50.7455 59.7829C48.1819 56.383 44.4283 54.0882 40.2908 53.2038C36.1533 52.3195 31.9538 53.2456 27.9231 54.7429C26.2414 55.5318 25.0059 55.9842 23.9857 56.5307C21.1467 58.0513 18.4749 60.292 15.2581 60.292L14.7446 60.292C14.6511 60.292 14.5577 60.285 14.4652 60.2711Z" fill="#F4F1E4"/>
<path d="M82.6838 59.5883C81.7914 60.1609 80.6221 60.0738 79.8959 59.2994C78.2168 57.5086 76.6606 55.3196 75.3299 53.3965C73.6196 51.0215 72.4056 48.5875 71.7808 46.2802C71.156 43.9729 71.1369 41.8536 71.7248 40.0841C72.3128 38.3145 73.4923 36.9417 75.1733 36.0704C76.8543 35.1992 78.9922 34.8526 81.4236 35.0571C83.8551 35.2616 86.5158 36.0118 89.2024 37.2504C91.889 38.489 94.5304 40.1833 96.9247 42.2036C98.1448 43.2331 99.2842 44.3333 100.322 45.4812C101.729 47.0373 100.817 49.4131 98.7775 49.8815C98.5089 49.9432 98.2322 49.9736 97.9596 49.9343C95.9667 49.6467 95.1655 48.1031 93.475 46.6766C91.6723 45.1555 90.7264 44.0853 88.7525 43.0419C87.271 42.2588 86.1636 41.7505 84.9542 41.325C84.1248 41.0332 83.2619 40.8379 82.3859 40.7681C81.8413 40.7248 81.3779 40.723 80.9301 40.7709C79.9653 40.8741 78.9782 41.1898 78.2798 41.8667C77.9461 42.1902 77.7571 42.6007 77.5456 43.3569C77.3637 44.1373 77.4349 44.7317 77.6294 45.3858C77.9524 46.472 78.4748 47.4891 79.0421 48.4689C79.5702 49.3809 80.074 50.1989 80.936 51.3959C81.762 52.543 82.5577 54.0812 83.4077 55.4578C84.2302 56.7898 83.9985 58.7448 82.6838 59.5883Z" fill="#F4F1E4"/>
<path d="M38.7009 65.0483C38.7009 67.2373 36.9355 69.0119 34.7578 69.0119C32.5801 69.0119 30.8147 67.2373 30.8147 65.0483C30.8147 62.8592 32.5801 61.0847 34.7578 61.0847C36.9355 61.0847 38.7009 62.8592 38.7009 65.0483Z" fill="#F4F1E4"/>
</svg>
